<svg id="svg" version="1.1" xmlns="http://www.w3.org/2000/svg" xmlns:xlink="http://www.w3.org/1999/xlink" width="400" height="400" viewBox="0, 0, 400,400"><g id="svgg"><path id="path0" d="M68.400 59.573 C 68.400 59.778,68.016 60.068,67.547 60.217 C 66.947 60.407,66.841 60.578,67.190 60.794 C 67.542 61.012,67.558 61.179,67.243 61.374 C 66.999 61.524,66.575 61.512,66.300 61.347 C 65.969 61.148,65.988 61.278,66.357 61.732 C 66.843 62.332,66.831 62.387,66.259 62.167 C 65.810 61.995,65.487 62.211,65.228 62.858 C 65.020 63.376,64.839 63.581,64.825 63.314 C 64.811 63.037,64.400 63.208,63.867 63.714 C 63.353 64.201,62.948 64.765,62.967 64.967 C 62.985 65.169,62.625 65.531,62.168 65.770 C 61.710 66.010,61.420 66.459,61.522 66.767 C 61.640 67.121,61.504 67.249,61.152 67.114 C 60.846 66.996,60.273 67.328,59.879 67.850 C 59.450 68.419,59.347 68.800,59.624 68.800 C 59.877 68.800,59.558 69.295,58.915 69.900 C 58.272 70.505,57.495 71.572,57.188 72.271 C 56.881 72.970,56.461 73.437,56.253 73.309 C 56.046 73.181,55.974 73.239,56.093 73.438 C 56.369 73.901,54.998 76.464,54.656 76.123 C 54.515 75.982,54.400 76.169,54.400 76.539 C 54.400 77.182,53.659 78.779,53.165 79.200 C 53.036 79.310,52.682 80.255,52.378 81.300 C 52.074 82.345,51.685 83.200,51.513 83.200 C 51.341 83.200,51.200 83.830,51.200 84.600 C 51.200 85.370,51.020 86.000,50.800 86.000 C 50.580 86.000,50.400 86.720,50.400 87.600 C 50.400 88.480,50.210 89.200,49.977 89.200 C 49.683 89.200,49.592 96.580,49.677 113.399 L 49.800 137.599 84.799 172.599 C 104.049 191.850,120.018 207.600,120.287 207.600 C 120.578 207.600,120.672 207.869,120.519 208.266 C 120.356 208.692,120.421 208.834,120.702 208.661 C 120.942 208.512,121.237 208.707,121.355 209.095 C 121.474 209.483,121.514 209.310,121.443 208.712 C 121.373 208.114,121.457 207.712,121.630 207.819 C 122.120 208.121,122.348 207.501,122.479 205.510 C 122.546 204.502,122.761 203.776,122.958 203.898 C 123.157 204.021,123.203 203.668,123.062 203.105 C 122.898 202.452,123.010 201.924,123.376 201.620 C 123.688 201.361,123.877 200.800,123.795 200.374 C 123.713 199.948,123.816 199.600,124.023 199.600 C 124.230 199.600,124.367 199.465,124.327 199.300 C 124.182 198.700,125.337 195.600,125.706 195.600 C 125.915 195.600,125.989 195.347,125.870 195.039 C 125.752 194.730,125.907 194.145,126.215 193.739 C 126.523 193.332,126.780 192.685,126.787 192.300 C 126.794 191.915,126.980 191.600,127.200 191.600 C 127.420 191.600,127.600 191.240,127.600 190.800 C 127.600 190.360,127.780 190.000,128.000 190.000 C 128.220 190.000,128.400 189.764,128.400 189.475 C 128.400 189.187,128.725 188.602,129.122 188.175 C 129.520 187.749,129.863 187.310,129.885 187.200 C 130.036 186.456,130.988 184.800,131.264 184.800 C 131.449 184.800,131.600 184.557,131.600 184.259 C 131.600 183.962,132.140 183.154,132.800 182.463 C 133.460 181.772,134.000 181.060,134.000 180.879 C 134.000 180.699,134.317 180.202,134.704 179.775 C 135.091 179.349,136.031 178.190,136.792 177.200 C 137.554 176.210,138.588 175.034,139.089 174.587 C 139.590 174.140,140.000 173.525,140.000 173.221 C 140.000 172.916,140.108 172.775,140.241 172.907 C 140.373 173.040,141.155 172.440,141.979 171.574 C 142.802 170.708,143.651 170.000,143.865 170.000 C 144.079 170.000,145.322 169.003,146.627 167.784 C 147.932 166.566,149.450 165.339,150.000 165.058 C 151.998 164.037,153.004 163.386,153.643 162.700 C 154.001 162.315,154.477 162.000,154.701 162.000 C 155.420 162.000,157.197 160.931,156.927 160.661 C 156.784 160.517,157.046 160.400,157.511 160.400 C 157.975 160.400,158.635 160.000,158.977 159.511 C 159.320 159.022,159.600 158.842,159.600 159.111 C 159.600 159.380,159.791 159.600,160.024 159.600 C 160.257 159.600,160.336 159.420,160.200 159.200 C 160.064 158.980,160.218 158.800,160.543 158.800 C 160.868 158.800,161.224 158.575,161.335 158.300 C 161.495 157.904,161.543 157.904,161.568 158.297 C 161.612 158.976,163.600 157.221,163.600 156.504 C 163.600 156.201,163.454 156.043,163.276 156.153 C 162.765 156.469,68.655 62.158,68.971 61.647 C 69.123 61.401,69.072 61.200,68.857 61.200 C 68.642 61.200,68.380 61.425,68.274 61.700 C 68.168 61.975,68.101 61.807,68.124 61.328 C 68.147 60.848,68.337 60.561,68.545 60.690 C 68.767 60.827,68.788 60.705,68.596 60.394 C 68.361 60.013,68.450 59.933,68.914 60.112 C 69.367 60.286,69.493 60.187,69.337 59.780 C 69.091 59.138,68.400 58.986,68.400 59.573 M167.600 155.933 C 167.600 156.190,167.150 156.400,166.600 156.400 C 166.050 156.400,165.600 156.555,165.600 156.745 C 165.600 157.187,167.537 156.826,167.846 156.326 C 167.975 156.117,167.972 155.839,167.840 155.707 C 167.708 155.575,167.600 155.677,167.600 155.933 M175.700 162.300 C 175.425 162.392,175.200 162.654,175.200 162.882 C 175.200 163.146,175.405 163.128,175.761 162.832 C 176.191 162.476,176.361 162.483,176.488 162.863 C 176.604 163.211,176.723 163.176,176.888 162.746 C 177.121 162.142,176.676 161.975,175.700 162.300 M172.854 163.476 C 172.785 164.601,172.006 165.086,171.439 164.358 C 170.984 163.774,169.200 163.800,169.200 164.390 C 169.200 164.574,168.812 164.624,168.337 164.500 C 167.746 164.345,167.565 164.420,167.761 164.737 C 167.954 165.048,167.654 165.200,166.847 165.200 C 166.187 165.200,165.536 165.380,165.400 165.600 C 165.264 165.820,164.803 166.000,164.376 166.000 C 163.949 166.000,163.599 166.135,163.599 166.300 C 163.598 166.465,162.608 167.050,161.400 167.600 C 160.192 168.150,159.202 168.735,159.201 168.900 C 159.201 169.065,158.922 169.200,158.583 169.200 C 158.244 169.200,157.580 169.560,157.108 170.000 C 156.636 170.440,156.002 170.800,155.701 170.800 C 155.399 170.800,155.240 170.942,155.348 171.115 C 155.455 171.288,154.970 171.681,154.271 171.988 C 153.572 172.295,152.523 173.053,151.940 173.673 C 151.356 174.293,150.696 174.800,150.471 174.800 C 149.928 174.800,142.800 181.738,142.800 182.267 C 142.800 182.495,142.260 183.246,141.600 183.937 C 140.940 184.628,140.400 185.385,140.400 185.620 C 140.400 185.855,140.220 185.936,140.000 185.800 C 139.780 185.664,139.600 185.884,139.600 186.288 C 139.600 186.693,139.240 187.283,138.800 187.600 C 138.360 187.917,138.000 188.482,138.000 188.855 C 138.000 189.228,137.833 189.593,137.630 189.667 C 137.426 189.740,137.201 190.063,137.130 190.384 C 137.058 190.706,136.685 191.325,136.300 191.760 C 135.915 192.195,135.600 192.787,135.600 193.075 C 135.600 193.364,135.464 193.600,135.298 193.600 C 134.907 193.600,133.972 195.712,133.892 196.776 C 133.858 197.229,133.688 197.600,133.515 197.600 C 133.342 197.600,133.200 197.870,133.200 198.200 C 133.200 198.530,133.059 198.800,132.887 198.800 C 132.715 198.800,132.534 199.295,132.484 199.900 C 132.434 200.505,132.215 201.060,131.997 201.133 C 131.778 201.207,131.600 201.792,131.600 202.433 C 131.600 203.075,131.459 203.600,131.287 203.600 C 131.115 203.600,130.934 204.085,130.885 204.678 C 130.836 205.270,130.572 205.898,130.298 206.071 C 129.915 206.315,129.926 206.389,130.349 206.394 C 130.792 206.399,130.801 206.516,130.400 207.000 C 130.126 207.330,130.002 207.600,130.123 207.600 C 130.245 207.600,130.158 208.185,129.931 208.900 C 129.354 210.711,129.243 215.732,129.771 216.094 C 130.009 216.257,129.755 216.402,129.200 216.419 L 128.200 216.451 129.146 216.829 C 129.972 217.160,130.023 217.293,129.546 217.881 C 129.086 218.448,129.086 218.502,129.545 218.225 C 129.978 217.964,192.058 279.271,192.700 280.594 C 192.755 280.707,192.800 280.976,192.800 281.190 C 192.800 281.441,193.157 281.444,193.800 281.200 C 194.529 280.923,194.802 280.953,194.806 281.310 C 194.810 281.623,194.952 281.584,195.200 281.200 C 195.545 280.667,195.589 280.667,195.600 281.200 C 195.611 281.733,195.655 281.733,196.000 281.200 C 196.345 280.667,196.390 280.667,196.407 281.200 C 196.423 281.733,196.480 281.733,196.913 281.200 C 197.254 280.780,198.091 280.615,199.700 280.649 C 200.965 280.677,202.000 280.542,202.000 280.349 C 202.000 280.157,202.529 280.000,203.176 280.000 C 203.823 280.000,204.464 279.820,204.600 279.600 C 204.736 279.380,205.377 279.200,206.024 279.200 C 206.671 279.200,207.200 279.020,207.200 278.800 C 207.200 278.580,207.729 278.400,208.376 278.400 C 209.023 278.400,209.664 278.220,209.800 278.000 C 209.936 277.780,210.487 277.600,211.024 277.600 C 211.561 277.600,212.000 277.420,212.000 277.200 C 212.000 276.980,212.461 276.800,213.024 276.800 C 213.604 276.800,213.940 276.627,213.800 276.400 C 213.655 276.166,214.070 276.000,214.800 276.000 C 215.530 276.000,215.945 275.834,215.800 275.600 C 215.664 275.380,215.788 275.189,216.076 275.176 C 216.364 275.163,217.410 274.723,218.400 274.197 C 219.390 273.672,220.605 273.057,221.100 272.831 C 221.595 272.605,222.000 272.235,222.000 272.010 C 222.000 271.784,222.320 271.600,222.712 271.600 C 223.103 271.600,223.683 271.240,224.000 270.800 C 224.317 270.360,224.798 270.000,225.068 270.000 C 225.339 270.000,225.744 269.685,225.968 269.300 C 226.192 268.915,226.381 268.728,226.388 268.884 C 226.395 269.041,227.106 268.456,227.969 267.584 C 228.831 266.713,229.731 266.000,229.969 266.000 C 230.206 266.000,230.400 265.816,230.400 265.591 C 230.400 265.367,230.850 264.978,231.400 264.727 C 231.950 264.477,232.400 264.032,232.400 263.739 C 232.400 263.446,232.760 262.982,233.200 262.707 C 233.640 262.432,234.000 262.001,234.000 261.749 C 234.000 261.496,234.527 260.871,235.170 260.358 C 235.814 259.846,236.253 259.286,236.147 259.113 C 236.040 258.941,236.203 258.800,236.509 258.800 C 236.815 258.800,237.320 258.305,237.632 257.700 C 238.263 256.478,238.364 256.330,239.783 254.556 C 240.330 253.871,240.688 253.222,240.579 253.113 C 240.470 253.003,240.655 252.686,240.990 252.408 C 241.326 252.130,241.600 251.648,241.600 251.337 C 241.600 251.026,241.891 250.328,242.246 249.786 C 242.601 249.244,242.768 248.800,242.617 248.800 C 242.466 248.800,242.627 248.515,242.975 248.168 C 243.323 247.820,243.505 247.370,243.380 247.168 C 243.255 246.965,243.343 246.800,243.576 246.800 C 243.809 246.800,244.000 246.429,244.000 245.976 C 244.000 245.523,244.180 245.264,244.400 245.400 C 244.620 245.536,244.800 245.287,244.800 244.847 C 244.800 244.407,244.980 243.936,245.200 243.800 C 245.420 243.664,245.587 243.248,245.572 242.876 C 245.549 242.325,245.480 242.348,245.200 243.000 C 244.908 243.680,244.852 243.695,244.828 243.103 C 244.813 242.720,245.151 242.188,245.580 241.920 C 246.128 241.578,246.241 241.290,245.959 240.951 C 245.678 240.613,245.833 240.204,246.480 239.580 C 247.384 238.706,247.385 238.694,246.546 238.896 C 245.243 239.209,171.700 165.618,172.630 164.932 C 173.010 164.652,173.193 164.091,173.087 163.532 C 172.916 162.636,172.907 162.634,172.854 163.476 M128.667 222.667 C 128.520 222.813,128.411 223.308,128.425 223.767 C 128.449 224.533,128.482 224.523,128.834 223.642 C 129.226 222.663,129.144 222.189,128.667 222.667 M257.881 251.852 C 257.726 252.007,257.600 260.023,257.600 269.667 C 257.600 281.089,257.461 287.200,257.200 287.200 C 256.980 287.200,256.800 287.495,256.800 287.856 C 256.800 288.217,256.485 288.751,256.100 289.043 C 255.285 289.662,251.600 289.790,251.600 289.200 C 251.600 288.980,251.330 288.800,251.000 288.800 C 250.667 288.800,250.400 288.444,250.400 288.000 C 250.400 287.560,250.220 287.200,250.000 287.200 C 249.740 287.200,249.598 281.896,249.595 272.100 C 249.589 256.443,249.506 255.108,248.563 255.470 C 248.256 255.587,248.093 255.826,248.200 256.000 C 248.307 256.174,248.126 256.419,247.798 256.546 C 247.469 256.672,247.200 257.061,247.200 257.411 C 247.200 257.761,247.065 257.965,246.900 257.866 C 246.552 257.655,245.850 258.397,245.691 259.143 C 245.631 259.424,245.181 260.057,244.691 260.550 C 244.201 261.042,243.444 262.109,243.009 262.922 C 242.574 263.735,241.989 264.400,241.709 264.400 C 241.429 264.400,241.200 264.655,241.200 264.967 C 241.200 265.621,233.857 273.200,233.223 273.200 C 232.990 273.200,232.800 273.380,232.800 273.600 C 232.800 273.820,232.602 274.000,232.360 274.000 C 232.119 274.000,231.442 274.513,230.855 275.141 C 230.269 275.768,229.252 276.580,228.595 276.946 C 226.661 278.021,225.903 278.546,224.898 279.508 C 224.376 280.007,223.780 280.311,223.574 280.184 C 223.368 280.057,223.200 280.143,223.200 280.376 C 223.200 280.609,222.829 280.800,222.376 280.800 C 221.923 280.800,221.664 280.980,221.800 281.200 C 221.936 281.420,221.767 281.600,221.424 281.600 C 221.081 281.600,220.800 281.780,220.800 282.000 C 220.800 282.220,220.665 282.379,220.500 282.353 C 219.596 282.210,218.785 282.452,219.000 282.800 C 219.140 283.026,218.812 283.200,218.247 283.200 C 217.697 283.200,217.136 283.380,217.000 283.600 C 216.864 283.820,216.403 284.000,215.976 284.000 C 215.549 284.000,215.200 284.180,215.200 284.400 C 215.200 284.620,214.855 284.800,214.433 284.800 C 214.012 284.800,213.603 284.990,213.526 285.222 C 213.449 285.454,213.079 285.689,212.704 285.744 C 212.330 285.799,211.898 285.969,211.745 286.122 C 211.592 286.275,211.083 286.400,210.613 286.400 C 210.144 286.400,209.552 286.608,209.299 286.861 C 209.045 287.115,208.292 287.307,207.626 287.288 C 206.959 287.269,206.310 287.422,206.183 287.627 C 206.057 287.832,205.609 288.000,205.189 288.000 C 204.644 288.000,204.488 288.201,204.645 288.700 C 204.848 289.344,204.818 289.342,204.271 288.676 C 203.894 288.216,203.581 288.107,203.415 288.376 C 203.271 288.609,202.724 288.800,202.200 288.800 C 201.676 288.800,201.136 288.980,201.000 289.200 C 200.864 289.420,200.966 289.600,201.226 289.600 C 201.486 289.600,204.511 292.377,207.949 295.771 L 214.200 301.942 217.600 302.318 C 221.466 302.744,223.008 302.713,175.600 303.178 C 151.356 303.416,154.019 303.451,201.681 303.521 C 255.837 303.602,256.800 303.629,256.800 305.064 C 256.800 305.359,256.980 305.600,257.200 305.600 C 258.028 305.600,257.649 308.990,256.751 309.612 C 256.284 309.935,255.667 310.425,255.380 310.700 C 254.973 311.089,248.281 311.217,225.129 311.276 C 199.130 311.343,197.207 311.386,209.800 311.622 C 226.476 311.934,225.200 311.861,225.200 312.502 C 225.200 312.778,233.571 321.373,243.801 331.602 L 262.403 350.200 285.601 350.324 C 301.738 350.409,308.800 350.318,308.800 350.024 C 308.800 349.782,309.659 349.600,310.800 349.600 C 311.900 349.600,312.800 349.420,312.800 349.200 C 312.800 348.980,313.340 348.800,314.000 348.800 C 314.660 348.800,315.200 348.620,315.200 348.400 C 315.200 348.180,315.729 348.000,316.376 348.000 C 317.023 348.000,317.664 347.820,317.800 347.600 C 317.936 347.380,318.487 347.200,319.024 347.200 C 319.561 347.200,320.000 347.020,320.000 346.800 C 320.000 346.580,320.360 346.400,320.800 346.400 C 321.240 346.400,321.600 346.220,321.600 346.000 C 321.600 345.780,321.960 345.600,322.400 345.600 C 322.840 345.600,323.200 345.420,323.200 345.200 C 323.200 344.980,323.470 344.800,323.800 344.800 C 324.130 344.800,324.400 344.620,324.400 344.400 C 324.400 344.180,324.678 344.000,325.017 344.000 C 325.356 344.000,326.020 343.640,326.492 343.200 C 326.964 342.760,327.843 342.182,328.446 341.915 C 329.049 341.649,329.470 341.314,329.383 341.172 C 329.295 341.030,329.884 340.573,330.691 340.157 C 332.610 339.167,334.025 337.965,333.766 337.544 C 333.652 337.360,333.849 337.320,334.203 337.457 C 334.644 337.626,334.918 337.434,335.071 336.852 C 335.193 336.383,335.452 336.000,335.647 336.000 C 335.841 336.000,336.000 335.750,336.000 335.444 C 336.000 335.139,336.315 334.914,336.700 334.944 C 337.110 334.977,337.350 334.767,337.279 334.437 C 337.212 334.127,337.323 333.767,337.525 333.637 C 338.132 333.246,338.583 331.440,337.981 331.812 C 337.688 331.993,337.577 331.961,337.716 331.737 C 338.012 331.256,258.269 251.464,257.881 251.852 M198.800 289.242 C 198.800 289.627,199.874 289.993,200.161 289.706 C 200.642 289.224,200.380 288.851,199.600 288.910 C 199.160 288.943,198.800 289.093,198.800 289.242 M189.114 290.074 C 189.315 290.275,189.877 290.265,190.432 290.050 C 191.338 289.700,191.315 289.678,190.081 289.699 C 189.326 289.713,188.913 289.873,189.114 290.074 M340.262 329.931 C 339.477 330.799,339.403 331.332,340.100 331.100 C 340.375 331.008,340.603 330.768,340.606 330.567 C 340.609 330.365,340.755 329.975,340.930 329.700 C 341.398 328.962,341.021 329.093,340.262 329.931 " stroke="none" fill="#7404fc" fill-rule="evenodd"></path><path id="path1" d="M160.000 50.000 C 158.208 50.153,157.644 50.285,158.601 50.328 C 160.985 50.435,227.496 116.800,225.219 116.800 C 224.355 116.800,223.982 116.941,224.220 117.176 C 224.782 117.733,234.812 118.397,242.700 118.398 L 249.600 118.400 249.600 104.600 C 249.600 95.667,249.741 90.800,250.000 90.800 C 250.220 90.800,250.400 90.500,250.400 90.133 C 250.400 89.767,250.520 89.587,250.668 89.734 C 250.815 89.881,251.250 89.717,251.634 89.369 C 252.805 88.310,254.289 88.407,256.014 89.656 L 257.600 90.805 257.600 104.575 L 257.600 118.344 266.679 118.385 C 276.316 118.429,278.400 118.897,278.400 121.020 C 278.400 121.339,278.580 121.600,278.800 121.600 C 279.351 121.600,279.301 122.630,278.700 123.701 C 278.164 124.655,276.401 126.377,276.027 126.312 C 275.902 126.291,275.530 126.388,275.200 126.528 C 274.870 126.668,270.820 126.831,266.200 126.891 L 257.800 127.000 257.691 134.729 C 257.630 139.086,257.736 142.363,257.933 142.241 C 258.126 142.122,258.403 143.594,258.549 145.512 L 258.814 149.000 304.207 194.401 C 348.694 238.896,349.601 239.833,349.662 241.401 C 349.696 242.280,349.858 241.470,350.022 239.600 C 350.494 234.227,350.472 90.400,350.000 90.400 C 349.780 90.400,349.600 89.691,349.600 88.824 C 349.600 87.957,349.420 87.136,349.200 87.000 C 348.980 86.864,348.800 86.234,348.800 85.600 C 348.800 84.966,348.620 84.336,348.400 84.200 C 348.180 84.064,348.000 83.423,348.000 82.776 C 348.000 82.129,347.820 81.600,347.600 81.600 C 347.380 81.600,347.200 81.328,347.200 80.995 C 347.200 80.662,347.032 80.077,346.826 79.695 C 346.621 79.313,346.217 78.415,345.929 77.700 C 345.640 76.985,345.269 76.400,345.102 76.400 C 344.936 76.400,344.800 76.080,344.800 75.688 C 344.800 75.297,344.440 74.717,344.000 74.400 C 343.560 74.083,343.200 73.503,343.200 73.112 C 343.200 72.720,343.050 72.400,342.868 72.400 C 342.685 72.400,342.281 71.905,341.971 71.300 C 340.331 68.099,335.254 62.307,332.418 60.400 C 331.587 59.841,330.466 58.976,329.317 58.007 C 329.051 57.783,328.596 57.600,328.305 57.600 C 328.014 57.600,327.517 57.240,327.200 56.800 C 326.883 56.360,326.303 56.000,325.912 56.000 C 325.520 56.000,325.200 55.820,325.200 55.600 C 325.200 55.380,324.930 55.200,324.600 55.200 C 324.270 55.200,324.000 55.020,324.000 54.800 C 324.000 54.580,323.640 54.400,323.200 54.400 C 322.760 54.400,322.400 54.220,322.400 54.000 C 322.400 53.780,322.040 53.600,321.600 53.600 C 321.160 53.600,320.800 53.420,320.800 53.200 C 320.800 52.980,320.361 52.800,319.824 52.800 C 319.287 52.800,318.736 52.620,318.600 52.400 C 318.464 52.180,317.903 52.000,317.353 52.000 C 316.803 52.000,316.452 51.840,316.573 51.643 C 316.780 51.309,315.939 51.092,312.297 50.542 C 311.471 50.418,310.695 50.155,310.574 49.958 C 310.324 49.553,164.760 49.594,160.000 50.000 M237.200 127.106 C 237.200 127.274,239.617 129.823,242.572 132.772 L 247.944 138.133 248.085 136.566 L 248.227 135.000 248.499 136.400 C 248.649 137.170,248.913 140.860,249.086 144.600 L 249.400 151.400 249.506 139.648 C 249.581 131.311,249.480 127.737,249.157 127.348 C 248.659 126.748,237.200 126.515,237.200 127.106 " stroke="none" fill="#b604fc" fill-rule="evenodd"></path><path id="path2" d="M49.773 178.700 L 49.800 225.200 112.300 287.700 L 174.800 350.200 221.300 350.227 C 246.875 350.242,266.540 350.191,265.000 350.113 L 262.200 349.972 243.700 331.487 C 233.525 321.321,225.200 312.804,225.200 312.561 C 225.200 311.766,219.226 311.601,182.000 311.369 C 142.675 311.125,142.400 311.109,142.400 309.139 C 142.400 308.733,142.220 308.400,142.000 308.400 C 141.780 308.400,141.600 307.849,141.600 307.176 C 141.600 306.344,141.750 306.045,142.068 306.242 C 142.384 306.438,142.452 306.312,142.276 305.853 C 142.093 305.376,142.309 305.042,143.008 304.724 C 143.554 304.475,144.000 304.120,144.000 303.936 C 144.000 303.751,144.551 303.600,145.224 303.600 C 145.897 303.600,146.364 303.465,146.262 303.300 C 146.159 303.135,151.864 303.058,158.938 303.130 C 178.892 303.331,221.739 302.720,217.600 302.293 L 214.200 301.942 207.949 295.771 C 204.511 292.377,201.486 289.600,201.226 289.600 C 200.966 289.600,200.864 289.420,201.000 289.200 C 201.136 288.980,201.072 288.800,200.857 288.800 C 200.642 288.800,200.402 288.995,200.322 289.233 C 200.230 289.511,198.296 289.683,194.915 289.713 C 192.020 289.739,189.729 289.885,189.823 290.038 C 189.918 290.190,189.563 290.289,189.036 290.258 C 188.508 290.226,188.160 290.065,188.262 289.900 C 188.364 289.735,187.886 289.600,187.200 289.600 C 186.309 289.600,186.039 289.743,186.253 290.100 C 186.487 290.489,186.424 290.496,185.975 290.132 C 185.656 289.875,183.867 289.569,181.998 289.452 C 176.974 289.138,174.400 288.768,174.400 288.361 C 174.400 288.163,173.669 288.000,172.776 288.000 C 171.883 288.000,171.252 287.840,171.373 287.643 C 171.494 287.447,171.010 287.186,170.297 287.062 C 167.286 286.541,166.400 286.289,166.400 285.955 C 166.400 285.760,166.098 285.600,165.728 285.600 C 164.754 285.600,162.400 284.694,162.400 284.320 C 162.400 284.144,162.051 284.000,161.624 284.000 C 161.197 284.000,160.736 283.820,160.600 283.600 C 160.464 283.380,160.003 283.200,159.576 283.200 C 159.149 283.200,158.799 283.065,158.797 282.900 C 158.795 282.735,158.390 282.399,157.897 282.154 C 154.485 280.459,152.000 279.017,152.000 278.733 C 152.000 278.550,151.745 278.400,151.433 278.400 C 151.122 278.400,150.807 278.265,150.733 278.100 C 150.660 277.935,149.520 277.083,148.200 276.206 C 146.880 275.329,144.738 273.574,143.441 272.306 C 142.143 271.038,140.928 270.000,140.741 270.000 C 140.553 270.000,140.400 269.834,140.400 269.632 C 140.400 269.429,139.725 268.554,138.900 267.687 C 136.094 264.737,134.159 262.445,133.611 261.421 C 133.311 260.860,132.915 260.400,132.732 260.400 C 132.550 260.400,132.400 260.212,132.400 259.983 C 132.400 259.754,132.040 259.180,131.600 258.708 C 131.160 258.236,130.800 257.613,130.800 257.325 C 130.800 257.036,130.620 256.800,130.400 256.800 C 130.180 256.800,129.996 256.575,129.991 256.300 C 129.986 256.025,129.630 255.350,129.200 254.800 C 128.770 254.250,128.414 253.519,128.409 253.175 C 128.404 252.832,128.072 252.199,127.672 251.769 C 127.271 251.339,126.692 250.135,126.385 249.094 C 126.077 248.052,125.685 247.200,125.513 247.200 C 125.341 247.200,125.200 246.851,125.200 246.424 C 125.200 245.997,125.043 245.550,124.852 245.432 C 124.549 245.245,124.315 244.506,123.776 242.040 C 123.708 241.732,123.506 241.372,123.327 241.240 C 123.147 241.108,123.009 240.550,123.019 240.000 C 123.030 239.450,122.898 238.901,122.726 238.780 C 122.554 238.660,122.347 237.831,122.267 236.940 C 122.187 236.049,122.011 235.142,121.877 234.925 C 121.743 234.709,121.596 233.827,121.550 232.966 C 121.504 232.105,121.308 231.081,121.114 230.692 C 120.588 229.631,120.462 212.351,120.979 212.153 C 121.350 212.010,121.424 211.142,121.250 208.976 C 121.220 208.608,121.009 208.471,120.732 208.642 C 120.417 208.836,120.348 208.713,120.519 208.266 C 120.672 207.869,120.578 207.600,120.287 207.600 C 120.018 207.600,104.100 191.895,84.913 172.700 L 50.028 137.800 49.887 135.000 C 49.809 133.460,49.758 153.125,49.773 178.700 M128.828 215.147 C 128.379 215.986,128.626 216.403,129.567 216.394 C 129.973 216.390,130.041 216.282,129.757 216.094 C 129.513 215.932,129.362 215.485,129.421 215.100 C 129.561 214.192,129.330 214.210,128.828 215.147 M128.497 219.826 C 128.425 221.968,128.525 222.770,128.840 222.575 C 129.254 222.319,129.155 222.960,128.518 224.660 C 128.423 224.912,128.546 225.243,128.792 225.395 C 129.118 225.597,129.113 225.823,128.770 226.236 C 128.513 226.546,128.467 226.800,128.669 226.800 C 129.030 226.800,129.275 228.440,129.326 231.200 C 129.340 231.970,129.480 232.690,129.637 232.800 C 129.794 232.910,129.978 233.720,130.046 234.600 C 130.115 235.480,130.301 236.293,130.459 236.407 C 130.618 236.522,130.813 237.100,130.892 237.692 C 130.971 238.285,131.163 238.897,131.318 239.052 C 131.473 239.207,131.600 239.743,131.600 240.243 C 131.600 240.743,131.780 241.264,132.000 241.400 C 132.220 241.536,132.400 241.997,132.400 242.424 C 132.400 242.851,132.541 243.200,132.713 243.200 C 132.885 243.200,133.066 243.695,133.116 244.300 C 133.166 244.905,133.385 245.460,133.603 245.533 C 133.822 245.607,134.000 246.012,134.000 246.433 C 134.000 246.855,134.180 247.200,134.400 247.200 C 134.620 247.200,134.800 247.560,134.800 248.000 C 134.800 248.440,134.980 248.800,135.200 248.800 C 135.420 248.800,135.600 249.160,135.600 249.600 C 135.600 250.040,135.744 250.400,135.920 250.400 C 136.096 250.400,136.636 251.165,137.118 252.100 C 138.312 254.412,138.876 255.273,139.700 256.041 C 140.085 256.400,140.400 256.998,140.400 257.371 C 140.400 257.743,140.580 257.936,140.800 257.800 C 141.020 257.664,141.200 257.769,141.200 258.033 C 141.200 258.297,141.738 259.028,142.396 259.657 C 143.054 260.286,143.461 260.800,143.300 260.800 C 143.140 260.800,143.501 261.257,144.104 261.816 C 144.707 262.375,145.200 263.005,145.200 263.216 C 145.200 263.427,145.458 263.600,145.773 263.600 C 146.088 263.600,146.460 263.960,146.600 264.400 C 146.740 264.840,147.008 265.200,147.196 265.200 C 147.384 265.200,148.474 266.055,149.617 267.100 C 152.041 269.315,158.107 273.518,159.700 274.086 C 160.305 274.302,160.800 274.641,160.800 274.839 C 160.800 275.038,161.115 275.201,161.500 275.201 C 161.885 275.202,162.789 275.562,163.510 276.001 C 164.230 276.441,165.175 276.800,165.610 276.800 C 166.044 276.800,166.400 276.980,166.400 277.200 C 166.400 277.420,166.850 277.600,167.400 277.600 C 167.950 277.600,168.400 277.780,168.400 278.000 C 168.400 278.220,168.730 278.400,169.133 278.400 C 169.537 278.400,170.002 278.535,170.167 278.700 C 170.506 279.039,170.710 279.080,172.424 279.150 C 173.097 279.178,173.558 279.344,173.449 279.520 C 173.341 279.696,173.915 279.885,174.725 279.939 C 175.535 279.994,176.370 280.210,176.579 280.419 C 176.789 280.629,177.914 280.800,179.080 280.800 C 180.246 280.800,181.200 280.965,181.200 281.167 C 181.200 281.885,191.598 281.550,191.613 280.832 C 191.623 280.325,191.748 280.359,192.244 281.000 C 192.770 281.681,192.843 281.696,192.731 281.103 C 192.502 279.884,130.165 217.852,129.545 218.225 C 129.101 218.493,129.092 218.439,129.497 217.940 C 130.007 217.310,129.800 216.800,129.033 216.800 C 128.770 216.801,128.560 217.984,128.497 219.826 " stroke="none" fill="#5404fc" fill-rule="evenodd"></path><path id="path3" d="M49.664 266.476 C 49.627 291.919,49.750 310.446,49.958 310.574 C 50.155 310.695,50.418 311.471,50.542 312.297 C 51.083 315.878,51.309 316.800,51.644 316.800 C 51.840 316.800,52.000 317.149,52.000 317.576 C 52.000 318.003,52.180 318.464,52.400 318.600 C 52.620 318.736,52.800 319.287,52.800 319.824 C 52.800 320.361,52.980 320.800,53.200 320.800 C 53.420 320.800,53.600 321.171,53.600 321.624 C 53.600 322.077,53.780 322.336,54.000 322.200 C 54.227 322.060,54.400 322.396,54.400 322.976 C 54.400 323.539,54.580 324.000,54.800 324.000 C 55.020 324.000,55.200 324.270,55.200 324.600 C 55.200 324.930,55.380 325.200,55.600 325.200 C 55.820 325.200,56.000 325.520,56.000 325.912 C 56.000 326.303,56.360 326.883,56.800 327.200 C 57.240 327.517,57.600 328.014,57.600 328.305 C 57.600 328.596,57.783 329.051,58.007 329.317 C 59.543 331.138,60.000 331.759,60.000 332.027 C 60.000 332.636,67.085 339.430,68.919 340.580 C 69.953 341.229,70.800 341.904,70.800 342.080 C 70.800 342.256,71.160 342.400,71.600 342.400 C 72.040 342.400,72.400 342.580,72.400 342.800 C 72.400 343.020,72.720 343.200,73.112 343.200 C 73.503 343.200,74.083 343.560,74.400 344.000 C 74.717 344.440,75.297 344.800,75.688 344.800 C 76.080 344.800,76.401 344.935,76.403 345.100 C 76.407 345.506,78.386 346.400,79.280 346.400 C 79.676 346.400,80.000 346.580,80.000 346.800 C 80.000 347.020,80.461 347.200,81.024 347.200 C 81.604 347.200,81.940 347.373,81.800 347.600 C 81.656 347.833,82.063 348.000,82.776 348.000 C 83.449 348.000,84.000 348.180,84.000 348.400 C 84.000 348.620,84.619 348.800,85.376 348.800 C 86.133 348.800,86.864 348.980,87.000 349.200 C 87.136 349.420,87.957 349.600,88.824 349.600 C 89.691 349.600,90.400 349.780,90.400 350.000 C 90.400 350.265,105.122 350.377,133.900 350.333 C 157.825 350.296,176.761 350.197,175.980 350.113 C 173.829 349.883,50.130 226.166,49.886 224.000 C 49.799 223.230,49.699 242.344,49.664 266.476 M146.352 303.312 C 146.545 303.505,147.219 303.598,147.851 303.519 C 148.909 303.387,148.881 303.359,147.500 303.168 C 146.640 303.049,146.150 303.110,146.352 303.312 " stroke="none" fill="#3b04fc" fill-rule="evenodd"></path><path id="path4" d="M89.600 50.000 C 89.600 50.220,88.891 50.400,88.024 50.400 C 87.157 50.400,86.336 50.580,86.200 50.800 C 86.064 51.020,85.524 51.200,85.000 51.200 C 84.476 51.200,83.936 51.380,83.800 51.600 C 83.664 51.820,83.124 52.000,82.600 52.000 C 82.076 52.000,81.536 52.180,81.400 52.400 C 81.264 52.620,80.803 52.800,80.376 52.800 C 79.949 52.800,79.599 52.935,79.597 53.100 C 79.593 53.459,77.656 54.400,76.920 54.400 C 76.634 54.400,76.400 54.580,76.400 54.800 C 76.400 55.020,76.080 55.200,75.688 55.200 C 75.297 55.200,74.717 55.560,74.400 56.000 C 74.083 56.440,73.577 56.800,73.276 56.800 C 72.975 56.800,72.371 57.205,71.934 57.700 C 71.497 58.195,71.262 58.362,71.411 58.070 C 71.636 57.634,71.538 57.632,70.858 58.057 C 70.349 58.374,70.196 58.674,70.459 58.836 C 70.758 59.021,70.753 59.182,70.443 59.374 C 70.199 59.524,69.789 59.517,69.532 59.358 C 69.225 59.168,69.145 59.281,69.300 59.685 C 69.454 60.084,69.319 60.283,68.917 60.250 C 68.538 60.220,68.249 60.588,68.174 61.200 C 68.106 61.750,68.144 61.975,68.259 61.700 C 68.373 61.425,68.642 61.200,68.857 61.200 C 69.072 61.200,69.123 61.401,68.971 61.647 C 68.640 62.183,162.778 156.461,163.314 156.129 C 163.514 156.006,163.608 156.242,163.524 156.653 C 163.426 157.129,163.086 157.360,162.585 157.290 C 161.871 157.190,161.862 157.218,162.491 157.605 C 163.006 157.921,163.423 157.872,164.123 157.414 C 164.641 157.075,165.184 156.918,165.332 157.065 C 165.479 157.213,165.600 157.123,165.600 156.867 C 165.600 156.610,166.050 156.400,166.600 156.400 C 167.150 156.400,167.600 156.237,167.600 156.037 C 167.600 155.838,167.988 155.776,168.463 155.900 C 169.049 156.054,169.234 155.979,169.042 155.668 C 168.858 155.370,168.977 155.293,169.384 155.449 C 169.729 155.581,170.270 155.474,170.588 155.210 C 170.905 154.947,171.332 154.834,171.537 154.961 C 171.741 155.087,172.424 155.020,173.054 154.811 C 173.684 154.602,174.740 154.363,175.400 154.279 C 176.060 154.195,176.870 154.019,177.200 153.887 C 179.076 153.137,193.701 152.517,194.934 153.135 C 195.410 153.374,196.970 153.649,198.400 153.746 C 200.850 153.913,202.059 154.132,206.400 155.198 C 207.390 155.441,208.470 155.687,208.800 155.745 C 209.130 155.802,209.760 156.031,210.200 156.253 C 210.640 156.475,212.125 157.004,213.500 157.428 C 214.875 157.853,216.000 158.335,216.000 158.500 C 216.000 158.665,216.360 158.800,216.800 158.800 C 217.240 158.800,217.600 158.980,217.600 159.200 C 217.600 159.420,217.960 159.600,218.400 159.600 C 218.840 159.600,219.200 159.780,219.200 160.000 C 219.200 160.220,219.560 160.400,220.000 160.400 C 220.440 160.400,220.800 160.580,220.800 160.800 C 220.800 161.020,221.160 161.200,221.600 161.200 C 222.040 161.200,222.400 161.380,222.400 161.600 C 222.400 161.820,222.636 162.000,222.925 162.000 C 223.213 162.000,223.798 162.315,224.225 162.700 C 224.651 163.085,225.495 163.655,226.100 163.968 C 226.705 164.280,227.200 164.685,227.200 164.868 C 227.200 165.050,227.470 165.200,227.800 165.200 C 228.130 165.200,228.400 165.341,228.400 165.514 C 228.400 165.686,228.932 166.142,229.583 166.526 C 231.804 167.838,242.400 177.974,242.400 178.787 C 242.400 178.983,242.637 179.381,242.928 179.671 C 243.827 180.572,246.400 184.370,246.400 184.796 C 246.400 185.018,246.580 185.200,246.800 185.200 C 247.020 185.200,247.200 185.427,247.200 185.704 C 247.200 186.343,248.707 187.305,249.216 186.990 C 250.096 186.446,249.459 141.911,248.493 136.400 L 248.248 135.000 248.024 136.523 L 247.800 138.047 242.243 132.434 L 236.686 126.821 201.225 126.710 L 165.763 126.600 164.682 125.518 C 162.952 123.788,163.128 121.247,165.091 119.629 L 166.582 118.400 200.191 118.344 C 222.993 118.305,232.326 118.175,229.215 117.938 C 224.900 117.610,222.056 116.800,225.219 116.800 C 227.496 116.800,160.985 50.435,158.601 50.328 C 157.644 50.285,158.208 50.153,160.000 50.000 C 161.650 49.859,146.485 49.712,126.300 49.672 C 102.052 49.624,89.600 49.736,89.600 50.000 M66.430 61.364 C 66.069 61.799,66.080 61.998,66.481 62.229 C 66.766 62.393,66.868 62.382,66.706 62.204 C 66.545 62.025,66.725 61.642,67.106 61.352 C 67.488 61.063,67.597 60.820,67.349 60.813 C 67.101 60.806,66.687 61.054,66.430 61.364 M257.900 142.231 C 257.735 142.397,257.600 167.193,257.600 197.333 C 257.600 227.473,257.726 252.007,257.881 251.852 C 258.269 251.464,338.012 331.256,337.716 331.737 C 337.577 331.961,337.688 331.993,337.981 331.812 C 338.360 331.577,338.411 331.736,338.185 332.448 L 337.884 333.396 338.899 332.419 C 339.457 331.881,339.833 331.229,339.733 330.969 C 339.633 330.709,340.012 330.134,340.576 329.691 C 341.139 329.247,341.600 328.675,341.600 328.419 C 341.600 328.163,341.735 328.036,341.900 328.138 C 342.065 328.240,342.641 327.441,343.179 326.362 C 343.717 325.283,344.302 324.400,344.479 324.400 C 344.655 324.400,344.800 324.040,344.800 323.600 C 344.800 323.160,344.980 322.800,345.200 322.800 C 345.420 322.800,345.600 322.440,345.600 322.000 C 345.600 321.560,345.780 321.200,346.000 321.200 C 346.220 321.200,346.400 320.840,346.400 320.400 C 346.400 319.960,346.580 319.600,346.800 319.600 C 347.020 319.600,347.200 319.161,347.200 318.624 C 347.200 318.087,347.380 317.536,347.600 317.400 C 347.820 317.264,348.000 316.713,348.000 316.176 C 348.000 315.639,348.180 315.200,348.400 315.200 C 348.620 315.200,348.800 314.570,348.800 313.800 C 348.800 313.030,348.980 312.400,349.200 312.400 C 349.420 312.400,349.600 311.601,349.600 310.624 C 349.600 309.647,349.780 308.736,350.000 308.600 C 350.263 308.438,350.375 296.107,350.328 272.676 C 350.288 253.054,350.141 238.350,350.000 240.000 C 349.847 241.789,349.715 242.354,349.672 241.401 C 349.602 239.837,348.585 238.786,304.215 194.401 L 258.830 149.000 258.515 145.464 C 258.342 143.520,258.065 142.065,257.900 142.231 M180.400 161.607 C 180.400 161.888,180.126 161.946,178.000 162.113 C 177.230 162.173,176.330 162.391,176.000 162.596 C 175.670 162.802,174.905 162.919,174.300 162.855 C 173.396 162.760,173.200 162.898,173.200 163.626 C 173.200 164.113,172.929 164.712,172.598 164.956 C 171.752 165.580,245.281 239.208,246.446 238.904 C 247.438 238.645,247.398 238.243,246.300 237.437 C 245.565 236.898,245.548 236.846,246.207 237.153 C 246.864 237.459,247.099 237.349,247.470 236.564 C 247.739 235.993,247.768 235.600,247.539 235.600 C 247.326 235.600,247.293 235.375,247.465 235.100 C 247.636 234.825,247.831 234.254,247.896 233.831 C 247.962 233.409,248.164 232.869,248.344 232.631 C 248.524 232.394,248.715 231.233,248.768 230.052 C 248.821 228.871,248.979 227.521,249.119 227.052 C 249.742 224.962,249.118 211.000,248.366 210.220 C 248.165 210.011,248.000 209.077,248.000 208.144 C 248.000 207.211,247.820 206.336,247.600 206.200 C 247.380 206.064,247.200 205.524,247.200 205.000 C 247.200 204.476,247.020 203.936,246.800 203.800 C 246.580 203.664,246.400 203.124,246.400 202.600 C 246.400 202.076,246.220 201.536,246.000 201.400 C 245.780 201.264,245.600 200.724,245.600 200.200 C 245.600 199.676,245.420 199.136,245.200 199.000 C 244.980 198.864,244.800 198.403,244.800 197.976 C 244.800 197.549,244.620 197.200,244.400 197.200 C 244.180 197.200,244.000 196.851,244.000 196.424 C 244.000 195.997,243.820 195.536,243.600 195.400 C 243.380 195.264,243.200 194.793,243.200 194.353 C 243.200 193.913,243.039 193.652,242.843 193.774 C 242.646 193.895,242.376 193.558,242.242 193.025 C 242.108 192.492,241.774 191.818,241.499 191.528 C 241.225 191.238,240.482 190.010,239.849 188.800 C 238.667 186.542,236.772 183.899,235.511 182.753 C 235.120 182.397,234.800 181.990,234.800 181.847 C 234.800 181.432,228.005 174.800,227.579 174.800 C 227.367 174.800,226.628 174.260,225.937 173.600 C 225.246 172.940,224.478 172.400,224.229 172.400 C 223.980 172.400,223.517 172.040,223.200 171.600 C 222.883 171.160,222.427 170.800,222.187 170.800 C 221.947 170.800,221.402 170.475,220.975 170.078 C 220.549 169.680,219.615 169.097,218.900 168.780 C 218.185 168.464,217.600 168.069,217.600 167.902 C 217.600 167.736,217.240 167.600,216.800 167.600 C 216.360 167.600,216.000 167.420,216.000 167.200 C 216.000 166.980,215.651 166.800,215.224 166.800 C 214.797 166.800,214.336 166.620,214.200 166.400 C 214.064 166.180,213.603 166.000,213.176 166.000 C 212.749 166.000,212.400 165.820,212.400 165.600 C 212.400 165.380,212.038 165.200,211.595 165.200 C 211.152 165.200,210.477 165.041,210.095 164.847 C 208.788 164.182,207.400 163.660,206.400 163.458 C 205.850 163.347,204.680 163.047,203.800 162.792 C 202.920 162.536,201.210 162.140,200.000 161.910 C 197.592 161.452,180.400 161.186,180.400 161.607 M171.900 163.515 C 171.111 163.677,170.982 164.218,171.635 164.622 C 172.130 164.927,172.965 164.250,172.745 163.721 C 172.665 163.528,172.285 163.436,171.900 163.515 " stroke="none" fill="#8f04fc" fill-rule="evenodd"></path></g></svg>